<svg width="32" height="32" viewBox="0 0 32 32" fill="none" xmlns="http://www.w3.org/2000/svg">
<path d="M23.4345 16.8491C23.4463 15.8264 23.7178 14.8235 24.2234 13.9344C24.729 13.0453 25.4522 12.2993 26.325 11.7661C25.77 10.975 25.0382 10.324 24.1878 9.86474C23.3374 9.40552 22.3917 9.15072 21.4257 9.12054C19.3803 8.90007 17.3838 10.3454 16.3305 10.3454C15.2772 10.3454 13.6481 9.12054 11.9089 9.12054C10.7851 9.1571 9.69003 9.48436 8.73047 10.0704C7.77091 10.6564 6.97966 11.4812 6.43396 12.4643C4.11905 16.6164 5.83379 22.6058 8.09971 25.9618C9.23879 27.5908 10.5493 29.4036 12.3008 29.3301C14.0523 29.2566 14.628 28.2522 16.6857 28.2522C18.7434 28.2522 19.3068 29.3301 21.0828 29.2933C22.8588 29.2566 24.0591 27.6643 25.1492 26.0231C25.9673 24.8686 26.5958 23.591 27.0109 22.2384C25.9513 21.7908 25.047 21.0409 24.4109 20.0825C23.7749 19.124 23.4352 17.9994 23.4345 16.8491Z" fill="white"/>
<path d="M20.0416 6.94064C21.0348 5.74756 21.5227 4.21366 21.4012 2.66602C19.8829 2.82987 18.4807 3.55501 17.4695 4.69922C16.9776 5.25969 16.6011 5.91168 16.3615 6.61785C16.1219 7.32403 16.0239 8.07052 16.0732 8.81461C16.8332 8.8221 17.5851 8.65739 18.2724 8.33284C18.9596 8.00829 19.5645 7.53232 20.0416 6.94064Z" fill="white"/>
</svg>
