<svg width="32" height="32" viewBox="0 0 32 32" fill="none" xmlns="http://www.w3.org/2000/svg">
<path d="M4.18215 3.58152L16.554 15.9533L4.27018 28.5989C4.25804 28.5781 4.2464 28.5569 4.23527 28.5356C4.20998 28.4876 4.1862 28.4385 4.16444 28.3884C4.03898 28.098 3.98283 27.7793 4.00458 27.458V4.54021C3.98637 4.20833 4.04859 3.88 4.18215 3.58152Z" fill="white"/>
<path d="M4.89092 2.8252C4.9324 2.80547 4.9749 2.78827 5.0179 2.77208C5.18738 2.70834 5.36798 2.67292 5.55213 2.66736C5.94471 2.65623 6.32818 2.78372 6.63577 3.02705L21.1137 11.2601L17.2759 15.2102L4.89092 2.8252Z" fill="white"/>
<path d="M22.039 11.7948L18.0089 15.9432L22.1968 20.1311L26.8293 17.5014C28.2798 16.6727 28.2798 15.3255 26.8293 14.507L22.039 11.7948Z" fill="white"/>
<path d="M21.2573 20.6567L17.287 16.6864L5.08316 29.2494C5.23291 29.2985 5.39024 29.3268 5.55061 29.3324C5.94218 29.3456 6.32616 29.2211 6.63577 28.9808L21.2573 20.6567Z" fill="white"/>
</svg>
